<svg width="24" height="24" viewBox="0 0 24 24" fill="none" xmlns="http://www.w3.org/2000/svg">
<path d="M8.5 2C7.11929 2 6 3.11929 6 4.5V6H8V4.5C8 4.22386 8.22386 4 8.5 4H15.5C15.7761 4 16 4.22386 16 4.5V6H18V4.5C18 3.11929 16.8807 2 15.5 2H8.5Z" fill="#0D0D0D"/>
<path d="M13 18V12H15V18H13Z" fill="#0D0D0D"/>
<path d="M9 12L9 18H11V12H9Z" fill="#0D0D0D"/>
<path fill-rule="evenodd" clip-rule="evenodd" d="M4 7.5H20V7.51648L22 7.51648V9.51648L20 9.51648V19.5C20 20.8807 18.8807 22 17.5 22H6.5C5.11929 22 4 20.8807 4 19.5V9.51648H2V7.51648H4V7.5ZM18 9.51648L6 9.51648V19.5C6 19.7761 6.22386 20 6.5 20H17.5C17.7761 20 18 19.7761 18 19.5V9.51648Z" fill="#0D0D0D"/>
</svg>
