<svg width="24" height="24" viewBox="0 0 24 24" fill="none" xmlns="http://www.w3.org/2000/svg">
<path d="M12.0596 3.58586L9.76675 1.29297L8.35254 2.70718L11.0598 5.41446V10.2681L6.85622 7.84116L5.86537 4.14323L3.93352 4.66087L4.77278 7.79302L1.64062 8.63228L2.15826 10.5641L5.85629 9.57325L10.0598 12.0001L5.85639 14.427L2.15845 13.4361L1.64081 15.368L4.77296 16.2072L3.9337 19.3394L5.86555 19.857L6.85643 16.159L11.0598 13.7322V18.5857L8.35254 21.293L9.76675 22.7072L12.0596 20.4143L14.3525 22.7072L15.7668 21.293L13.0598 18.586V13.7322L17.2632 16.159L18.2541 19.857L20.1859 19.3394L19.3467 16.2072L22.4788 15.368L21.9612 13.4361L18.2632 14.427L14.0598 12.0001L18.2633 9.57329L21.9611 10.5641L22.4788 8.63228L19.3466 7.79302L20.1859 4.66087L18.254 4.14323L17.2631 7.84132L13.0598 10.2681V5.41412L15.7668 2.70718L14.3525 1.29297L12.0596 3.58586Z" fill="#0D0D0D"/>
</svg>
