<svg width="24" height="24" viewBox="0 0 24 24" fill="none" xmlns="http://www.w3.org/2000/svg">
<path d="M13 5C13 3.34315 14.3431 2 16 2C17.6569 2 19 3.34315 19 5C19 6.65686 17.6569 8 16 8C14.3431 8 13 6.65686 13 5Z" fill="#0D0D0D"/>
<path d="M5 5C5 3.34315 6.34315 2 8 2C9.65685 2 11 3.34315 11 5C11 6.65686 9.65685 8 8 8C6.34315 8 5 6.65686 5 5Z" fill="#0D0D0D"/>
<path d="M18 22C18 18.6863 15.3137 16 12 16C8.68629 16 6 18.6863 6 22H18Z" fill="#0D0D0D"/>
<path d="M9 12C9 10.3431 10.3431 9 12 9C13.6569 9 15 10.3431 15 12C15 13.6569 13.6569 15 12 15C10.3431 15 9 13.6569 9 12Z" fill="#0D0D0D"/>
<path d="M15.3542 15C16.0667 14.2039 16.5 13.1525 16.5 12C16.5 10.8626 16.078 9.82371 15.382 9.03144C15.5852 9.01065 15.7914 9 16 9C19.3137 9 22 11.6863 22 15H15.3542Z" fill="#0D0D0D"/>
<path d="M8.61797 9.03144C7.922 9.82371 7.5 10.8626 7.5 12C7.5 13.1525 7.93328 14.2039 8.64584 15H2C2 11.6863 4.68629 9 8 9C8.20865 9 8.41481 9.01065 8.61797 9.03144Z" fill="#0D0D0D"/>
</svg>
