<svg xmlns="http://www.w3.org/2000/svg" viewBox="0 0 64 64"><path class="icon-close_svg__fill" d="M52.552 11.448a2.666 2.666 0 01.222 3.52l-.222.251-16.781 16.78 16.781 16.782a2.665 2.665 0 010 3.771 2.666 2.666 0 01-3.52.222l-.251-.222L32 35.771 15.219 52.552a2.665 2.665 0 01-3.771 0 2.666 2.666 0 01-.222-3.52l.222-.251L28.228 32l-16.78-16.781a2.665 2.665 0 010-3.771 2.666 2.666 0 013.52-.222l.251.222 16.78 16.78 16.782-16.78a2.665 2.665 0 013.771 0z" fill="#000" fill-rule="evenodd"></path></svg>