<svg xmlns="http://www.w3.org/2000/svg" viewBox="0 0 64 64"><path class="icon-members_svg__fill" d="M34.667 37.333c7.17 0 13.018 5.66 13.32 12.755l.013.579V56a2.667 2.667 0 01-5.315.311L42.667 56v-5.333c0-4.26-3.33-7.743-7.53-7.987l-.47-.013H13.333a8 8 0 00-7.986 7.53l-.014.47V56a2.667 2.667 0 01-5.316.311L0 56v-5.333c0-7.17 5.66-13.019 12.755-13.321l.578-.013h21.334zM54 37.765a13.333 13.333 0 019.986 12.297l.014.605V56a2.667 2.667 0 01-5.315.311L58.667 56v-5.331a8 8 0 00-6-7.74A2.667 2.667 0 1154 37.765zM24 5.333c7.364 0 13.333 5.97 13.333 13.334C37.333 26.03 31.363 32 24 32c-7.364 0-13.333-5.97-13.333-13.333 0-7.364 5.97-13.334 13.333-13.334zm19.328.43a13.333 13.333 0 010 25.834 2.667 2.667 0 11-1.323-5.167 8 8 0 000-15.5 2.667 2.667 0 111.323-5.167zM24 10.667a8 8 0 100 16 8 8 0 000-16z" fill="#000" fill-rule="evenodd"></path></svg>